<svg width="2368" height="2368" viewBox="0 0 2368 2368" fill="none" xmlns="http://www.w3.org/2000/svg">
<path d="M1184 2367.97C1837.89 2367.97 2367.97 1837.89 2367.97 1184C2367.97 530.111 1837.89 0.0300293 1184 0.0300293C530.111 0.0300293 0.0300293 530.111 0.0300293 1184C0.0300293 1837.89 530.111 2367.97 1184 2367.97Z" fill="#161E53"/>
<path d="M1589.6 780.03L1672.58 559.22H1536.26L1481.52 704.43C1451.53 688.69 1420.02 676.02 1387.49 666.62L1427.97 559.1H1291.65L1258.58 646.82C1254.25 646.82 1249.87 646.58 1245.45 646.58H1087.05C1066.01 643.94 1045.29 639.2 1025.2 632.41C1018.21 630.07 1011.39 627.58 1004.66 624.79L959.67 744.04L611.4 1668.3H873.73L820.71 1808.89H957.03L1010.08 1668.3H1118.4L1065.38 1808.89H1201.7L1254.72 1668.21C1536.67 1663.4 1761.33 1430.94 1756.52 1148.99C1754.12 1008.24 1693.72 874.73 1589.59 780.01L1589.6 780.03ZM795.76 1540.76L1084.7 774.34C1097.68 775.55 1110.69 776.09 1123.7 776.09C1136.71 776.09 1150.37 775.47 1163.35 774.22H1210.77L921.86 1540.76H795.76ZM1058.09 1540.76L1342.59 786.58C1375.41 795.23 1406.94 808.18 1436.36 825.11L1166.38 1540.77H1058.09V1540.76ZM1516.72 1428.41C1459.33 1486.19 1384.89 1524.01 1304.38 1536.28L1539.77 911.96C1667.04 1064.09 1657.04 1288.23 1516.71 1428.41H1516.72Z" fill="#FFBB51"/>
</svg>
