<svg width="120" height="120" viewBox="0 0 120 120" fill="none" xmlns="http://www.w3.org/2000/svg">
<circle cx="60" cy="60" r="60" fill="white"/>
<g clip-path="url(#clip0_176_17)">
<path d="M94.09 27.93L91.09 30.93C98.2485 38.7583 102.218 48.9821 102.218 59.59C102.218 70.1978 98.2485 80.4217 91.09 88.25L94.09 91.25C102.051 82.6148 106.471 71.2999 106.471 59.555C106.471 47.81 102.051 36.4952 94.09 27.86V27.93Z" fill="#5A5564"/>
<path d="M31 28.19C38.8283 21.0315 49.0521 17.0617 59.66 17.0617C70.2678 17.0617 80.4917 21.0315 88.32 28.19L91.32 25.19C82.6848 17.229 71.37 12.8091 59.625 12.8091C47.88 12.8091 36.5652 17.229 27.93 25.19L31 28.19Z" fill="#5A5564"/>
<path d="M28.19 88.28C21.04 80.4534 17.0755 70.2358 17.0755 59.635C17.0755 49.0341 21.04 38.8166 28.19 30.99L25.19 27.99C17.229 36.6252 12.8091 47.94 12.8091 59.685C12.8091 71.4299 17.229 82.7448 25.19 91.38L28.19 88.28Z" fill="#5A5564"/>
<path d="M88.28 91.05C80.4517 98.2085 70.2279 102.178 59.62 102.178C49.0122 102.178 38.7883 98.2085 30.96 91.05L27.96 94.05C36.5952 102.011 47.9101 106.431 59.655 106.431C71.4 106.431 82.7148 102.011 91.35 94.05L88.28 91.05Z" fill="#5A5564"/>
<path d="M78.57 49.62C77.97 43.36 72.57 41.26 65.74 40.62V32H60.46V40.46C59.07 40.46 57.65 40.46 56.24 40.46V32H51V40.68H40.29V46.33C40.29 46.33 44.19 46.26 44.13 46.33C44.8332 46.2526 45.539 46.4513 46.0986 46.8841C46.6582 47.3168 47.028 47.95 47.13 48.65V72.41C47.115 72.6569 47.0506 72.8983 46.9406 73.1198C46.8307 73.3414 46.6775 73.5387 46.49 73.7C46.306 73.8644 46.0907 73.9899 45.857 74.0689C45.6233 74.148 45.376 74.179 45.13 74.16C45.2 74.22 41.29 74.16 41.29 74.16L40.29 80.47H50.9V89.29H56.18V80.6H60.4V89.25H65.69V80.53C74.61 79.99 80.83 77.79 81.61 69.44C82.24 62.72 79.08 59.72 74.03 58.51C77.1 57 79 54.2 78.57 49.62ZM71.17 68.4C71.17 74.96 59.93 74.21 56.35 74.21V62.57C59.93 62.58 71.17 61.55 71.17 68.4ZM68.72 52C68.72 58 59.34 57.27 56.36 57.27V46.69C59.34 46.69 68.72 45.75 68.72 52Z" fill="#F09242"/>
<path d="M59.62 114.26C48.8161 114.258 38.2553 111.053 29.273 105.049C20.2907 99.0455 13.2901 90.5133 9.15657 80.5314C5.023 70.5495 3.94198 59.566 6.05021 48.9698C8.15844 38.3735 13.3612 28.6403 21.0008 21.0008C28.6403 13.3612 38.3735 8.15844 48.9698 6.05021C59.566 3.94198 70.5495 5.023 80.5314 9.15657C90.5133 13.2901 99.0455 20.2907 105.049 29.273C111.053 38.2553 114.258 48.8161 114.26 59.62C114.261 66.7958 112.849 73.9016 110.103 80.5314C107.358 87.1612 103.333 93.1852 98.2593 98.2593C93.1852 103.333 87.1612 107.358 80.5314 110.103C73.9016 112.849 66.7958 114.261 59.62 114.26ZM59.62 9.26002C49.6663 9.26793 39.9383 12.2265 31.6656 17.7619C23.3929 23.2972 16.9469 31.1609 13.1424 40.3588C9.3378 49.5568 8.34544 59.6762 10.2907 69.438C12.236 79.1998 17.0316 88.1659 24.0713 95.2028C31.1111 102.24 40.079 107.032 49.8416 108.973C59.6042 110.915 69.7232 109.918 78.9197 106.11C88.1161 102.302 95.9772 95.8527 101.509 87.5778C107.041 79.3029 109.996 69.5738 110 59.62C110.003 53.0042 108.701 46.4528 106.17 40.3404C103.639 34.2279 99.9277 28.6743 95.2487 23.9972C90.5697 19.32 85.0147 15.6111 78.9012 13.0824C72.7878 10.5536 66.2358 9.25477 59.62 9.26002Z" fill="#282138"/>
</g>
<defs>
<clipPath id="clip0_176_17">
<rect width="109.26" height="109.26" fill="white" transform="translate(5 5)"/>
</clipPath>
</defs>
</svg>
